<svg xmlns="http://www.w3.org/2000/svg" width="1280" height="720"><rect width="1280" height="720" fill="#ead7b7"/><rect x="800" y="0" width="480" height="720" fill="#dcc194"/><rect x="852" y="120" width="330" height="440" rx="6" fill="#f8ecd6" stroke="#2a1a10" stroke-width="3" transform="rotate(4 1017 340)"/><rect x="872" y="90" width="330" height="440" rx="6" fill="#f8ecd6" stroke="#2a1a10" stroke-width="3" transform="rotate(-3 1037 310)"/><rect x="892" y="150" width="300" height="26" fill="#b3261e"/><rect x="892" y="200" width="250" height="14" fill="#573f2f" opacity="0.55"/><rect x="892" y="244" width="228" height="14" fill="#573f2f" opacity="0.55"/><rect x="892" y="288" width="206" height="14" fill="#573f2f" opacity="0.55"/><rect x="892" y="332" width="184" height="14" fill="#573f2f" opacity="0.55"/><rect x="892" y="376" width="162" height="14" fill="#573f2f" opacity="0.55"/><text x="72" y="120" font-family="Arial, Helvetica, sans-serif" font-size="27" font-weight="bold" letter-spacing="5" fill="#96190f">NICHE PLAYBOOK</text><text x="72" y="300" font-family="Georgia, 'Times New Roman', serif" font-size="84" font-weight="bold" fill="#2a1a10">Niche Playbook:</text><text x="72" y="391" font-family="Georgia, 'Times New Roman', serif" font-size="84" font-weight="bold" fill="#2a1a10">Income Seekers</text><text x="72" y="482" font-family="Arial, Helvetica, sans-serif" font-size="29" font-weight="bold" fill="#573f2f">12 pains + 6 places + price ladder</text><text x="72" y="524" font-family="Arial, Helvetica, sans-serif" font-size="29" font-weight="bold" fill="#573f2f">+ 30-day plan. Zero income promises.</text><rect x="72" y="578" width="224" height="46" rx="4" fill="#f8ecd6" stroke="#96190f" stroke-width="2.5"/><text x="87" y="609" font-family="Arial, Helvetica, sans-serif" font-size="23" font-weight="bold" fill="#2a1a10">12 labeled pains</text><rect x="310" y="578" width="236" height="46" rx="4" fill="#f8ecd6" stroke="#96190f" stroke-width="2.5"/><text x="325" y="609" font-family="Arial, Helvetica, sans-serif" font-size="23" font-weight="bold" fill="#2a1a10">6 places + ladder</text><rect x="560" y="578" width="212" height="46" rx="4" fill="#f8ecd6" stroke="#96190f" stroke-width="2.5"/><text x="575" y="609" font-family="Arial, Helvetica, sans-serif" font-size="23" font-weight="bold" fill="#2a1a10">30-day calendar</text><rect x="72" y="638" width="230" height="56" rx="4" fill="#b3261e"/><text x="187" y="676" text-anchor="middle" font-family="Arial, Helvetica, sans-serif" font-size="30" font-weight="bold" fill="#fff4e0">$12 one-time</text><desc>badge bottom 694; chips end x 786</desc></svg>
